# xmcd
#
# Track frame offsets:
#	150
#	15818
#	32146
#	52360
#	63208
#	79483
#	97484
#	115135
#	138215
#	157062
#	170894
#	188275
#
# Disc length: 2868 seconds
#
# Revision: 1
# Processed by: cddbd v1.5.1PL0 Copyright (c) Steve Scherf et al.
# Submitted via: EasyCDDAExtractor 5.1.0
#
DISCID=a30b320c
DTITLE=Various Artist - Wiener Lienien
DYEAR=1997
DGENRE=Blues
TTITLE0=Untouchables - Nightship
TTITLE1=Andy Lee Lang - Andy Lee Lang Medley
TTITLE2=Bär - Danzer - Baum - Alle Lichter
TTITLE3=Hannes Jaric - Boogie Runner
TTITLE4=Wiener-Linien-Blues-Band - The Thrill is gone
TTITLE5=Untouchables - Hats on Fire
TTITLE6=Wiener-Linien-Blues-Band - Cold Shot
TTITLE7=Hannes Jaric - Kansys City
TTITLE8=Bär Ulli - Kea vua da eiganen Tia
TTITLE9=Andy Lee Lang - Andys Boogie
TTITLE10=Allround Formation  - Brazil
TTITLE11=Blue Note Six - Memphis Blues
EXTD=
EXTT0=
EXTT1=
EXTT2=
EXTT3=
EXTT4=
EXTT5=
EXTT6=
EXTT7=
EXTT8=
EXTT9=
EXTT10=
EXTT11=
PLAYORDER=
